<svg id="Layer_5" enable-background="new 0 0 64 64" height="512" viewBox="0 0 64 64" width="512" xmlns="http://www.w3.org/2000/svg"><g fill="#f0bc5e"><path d="m10 49h-2c0 2.757-2.243 5-5 5v2c2.757 0 5 2.243 5 5h2c0-2.757 2.243-5 5-5v-2c-2.757 0-5-2.243-5-5z"/><path d="m51 3h-2c0 2.757-2.243 5-5 5v2c2.757 0 5 2.243 5 5h2c0-2.757 2.243-5 5-5v-2c-2.757 0-5-2.243-5-5z"/><path d="m33.776 5h-7.776c-1.654 0-3 1.346-3 3s1.346 3 3 3h7c.551 0 1 .448 1 1s-.449 1-1 1h-5c-1.654 0-3 1.346-3 3s1.346 3 3 3h15.609c-1.148-5.949-4.81-10.986-9.833-14z"/><path d="m7 9.417v8.583c0 1.654 1.346 3 3 3s3-1.346 3-3v-4c0-.552.449-1 1-1s1 .448 1 1v8c0 1.654 1.346 3 3 3s3-1.346 3-3v-19.899c-5.601.53-10.553 3.26-14 7.316z"/><path d="m23 44c1.724 0 3.397-.213 5-.604v-1.396c0-1.654-1.346-3-3-3h-8c-.551 0-1-.448-1-1s.449-1 1-1h3c1.654 0 3-1.346 3-3s-1.346-3-3-3h-11c-.551 0-1-.448-1-1s.449-1 1-1h1c1.654 0 3-1.346 3-3s-1.346-3-3-3h-8c0 11.598 9.402 21 21 21z"/></g><path d="m53 45.586-3.086-3.086 1.448-1.448-8.111-9.463c1.156-2.717 1.749-5.602 1.749-8.589 0-12.131-9.869-22-22-22s-22 9.869-22 22 9.869 22 22 22c4.525 0 8.829-1.365 12.516-3.926-.319.574-.516 1.224-.516 1.926 0 1.485.823 2.769 2.028 3.459l-2.914 6.566c-1.403 3.161-2.114 6.517-2.114 9.975h2c0-3.177.653-6.261 1.942-9.165l2.058-4.637v13.802h2v-13.802l2.058 4.637c1.289 2.904 1.942 5.988 1.942 9.165h2c0-3.458-.711-6.814-2.114-9.976l-2.914-6.566c.169-.097.329-.204.482-.324l2.598 2.227 1.448-1.448 3.086 3.087-1 1 4.414 4.414 6.414-6.414-4.414-4.414zm-50-22.586c0-11.028 8.972-20 20-20s20 8.972 20 20c0 2.376-.414 4.681-1.219 6.874l-1.957-2.284 1.59-1.59-4.414-4.414-12.414 12.414 4.414 4.414 1.591-1.591 3.375 2.892c-3.259 2.147-7.021 3.285-10.966 3.285-11.028 0-20-8.972-20-20zm26 12.586-1.586-1.586 9.586-9.586 1.586 1.586zm10 5.414c1.103 0 2 .897 2 2s-.897 2-2 2-2-.897-2-2 .897-2 2-2zm4.948 4.638-1.263-1.082c.203-.479.315-1.004.315-1.556 0-2.206-1.794-4-4-4-.769 0-1.481.228-2.091.606l-4.901-4.2 6.397-6.397 10.233 11.938zm2.966-.138 1.586-1.586 3.086 3.086-1.586 1.586zm5.086 7.086-1.586-1.586 3.586-3.586 1.586 1.586z"/><path d="m59 25h2v2h-2z"/><path d="m61 27h2v2h-2z"/><path d="m59 29h2v2h-2z"/><path d="m57 27h2v2h-2z"/><path d="m22 57h2v2h-2z"/><path d="m24 59h2v2h-2z"/><path d="m22 61h2v2h-2z"/><path d="m20 59h2v2h-2z"/><path d="m51 17h2v2h-2z"/><path d="m53 19h2v2h-2z"/><path d="m51 21h2v2h-2z"/><path d="m49 19h2v2h-2z"/></svg>