<svg height="496pt" viewBox="0 0 496 496" width="496pt" xmlns="http://www.w3.org/2000/svg"><path d="m464 112v-16h-92.03125v16h76.03125v304h-192v-72h-16v72h-192v-304h76.03125v-16h-92.03125v16h-32v352h208.808594c3.710937 18.230469 19.878906 32 39.191406 32s35.480469-13.769531 39.191406-32h208.808594v-352zm16 336h-208v8c0 13.230469-10.769531 24-24 24s-24-10.769531-24-24v-8h-208v-320h16v304h432v-304h16zm0 0"/><path d="m432 240h-122.03125v16h106.03125v96h-128v-92.0625h-16v108.0625h160zm0 0"/><path d="m64 384h160v16h-160zm0 0"/><path d="m64 352h160v16h-160zm0 0"/><path d="m272 384h160v16h-160zm0 0"/><path d="m248 329.886719-30.695312-61.398438c-61.25-14.128906-105.304688-69.222656-105.304688-132.488281 0-74.992188 61.007812-136 136-136s136 61.007812 136 136c0 63.265625-44.054688 118.359375-105.304688 132.496094zm0 0" fill="#f0bc5e"/><path d="m248 80c-13.230469 0-24-10.769531-24-24s10.769531-24 24-24 24 10.769531 24 24-10.769531 24-24 24zm0-32c-4.40625 0-8 3.585938-8 8s3.59375 8 8 8 8-3.585938 8-8-3.59375-8-8-8zm0 0"/><path d="m288 240h-80v-48h16v-48h-16v-48h64v96h16zm-64-16h48v-16h-16v-96h-32v16h16v80h-16zm0 0"/><path d="m64 320h160v16h-160zm0 0"/><path d="m64 288h144v16h-144zm0 0"/></svg>