<svg id="Layer_5" enable-background="new 0 0 64 64" height="512" viewBox="0 0 64 64" width="512" xmlns="http://www.w3.org/2000/svg"><path d="m25.84 20.34-1.233-1.961 2.393-.598v-7.562l-2.416-.603 1.281-2.136-5.347-5.346-2.134 1.281-.603-2.415h-7.562l-.603 2.416-2.135-1.281-5.347 5.345 1.281 2.136-2.415.603v7.562l2.416.603-1.282 2.136 5.347 5.346 2.134-1.281.604 2.415h6.108c2.118-3.348 5.515-5.802 9.513-6.66zm-17.84-6.34c0-3.314 2.686-6 6-6s6 2.686 6 6-2.686 6-6 6-6-2.686-6-6z" fill="#f0bc5e"/><path d="m14 21c-3.86 0-7-3.141-7-7s3.14-7 7-7 7 3.141 7 7-3.14 7-7 7zm0-12c-2.757 0-5 2.243-5 5s2.243 5 5 5 5-2.243 5-5-2.243-5-5-5z"/><path d="m42.98 34.62c-.04-1.462-.315-2.919-.818-4.329l1.884-.672c.574 1.609.889 3.273.934 4.946z"/><path d="m40.857 36.766-1.979-.293c.083-.56.122-1.028.122-1.473 0-2.092-.648-4.102-1.875-5.813l1.626-1.164c1.472 2.052 2.249 4.465 2.249 6.977 0 .546-.045 1.107-.143 1.766z"/><path d="m35 36h-2v-2h2zm-4 0h-2v-2h2zm-4 0h-2v-2h2zm-4 0h-2v-2h2z"/><path d="m29 49c-7.72 0-14-6.28-14-14s6.28-14 14-14c.482 0 .975.027 1.504.084l.213-1.988c-.601-.065-1.163-.096-1.717-.096-8.822 0-16 7.178-16 16 0 3.025.859 5.846 2.324 8.261l-2.324 2.325-1-1-9.464 9.464c-.991.99-1.536 2.306-1.536 3.708 0 2.89 2.352 5.242 5.243 5.242 1.399 0 2.716-.545 3.707-1.535l9.464-9.465-1-1 2.324-2.324c2.415 1.465 5.237 2.324 8.262 2.324 1.819 0 3.634-.32 5.394-.951l-.676-1.883c-1.542.554-3.13.834-4.718.834zm-20.464 11.05c-.613.613-1.428.95-2.293.95-1.788 0-3.243-1.454-3.243-3.242 0-.867.337-1.681.95-2.293l8.05-8.051 4.586 4.586zm8.464-10.464-2.586-2.586 2.066-2.066c.761.958 1.628 1.825 2.586 2.586z"/><path d="m29 25c1.286 0 2.547.247 3.748.733l.751-1.854c-1.44-.583-2.954-.879-4.499-.879-6.617 0-12 5.383-12 12s5.383 12 12 12c2.077 0 4.132-.548 5.943-1.583l-.993-1.736c-1.51.863-3.221 1.319-4.95 1.319-5.514 0-10-4.486-10-10s4.486-10 10-10z"/><path d="m11.293 50.707h2v2h-2z" transform="matrix(.707 -.707 .707 .707 -32.962 23.837)"/><path d="m5.722 56.329h1.899v2h-1.899z" transform="matrix(.707 -.707 .707 .707 -38.583 21.509)"/><path d="m8.464 53.535h2v2h-2z" transform="matrix(.707 -.707 .707 .707 -35.79 22.665)"/><path d="m44 1c-8.271 0-15 6.729-15 15s6.729 15 15 15 15-6.729 15-15-6.729-15-15-15zm8 22h-16v-12h4v4h4v-2h4v-4h4z" fill="#f0bc5e"/><path d="m47 8v4h-4v2h-2v-4h-6v14h18v-16zm-8 14h-2v-10h2zm2-6h2v6h-2zm4 6v-8h2v8zm6 0h-2v-12h2z"/><path d="m48 33c-8.271 0-15 6.729-15 15s6.729 15 15 15 15-6.729 15-15-6.729-15-15-15zm7.426 22.426c-1.25 1.251-4.253.384-7.426-1.913-3.173 2.297-6.175 3.163-7.426 1.913-1.25-1.25-.384-4.253 1.913-7.426-2.297-3.173-3.163-6.175-1.913-7.426s4.253-.384 7.426 1.913c3.173-2.297 6.175-3.163 7.426-1.913s.384 4.253-1.913 7.426c2.297 3.173 3.163 6.175 1.913 7.426z" fill="#f0bc5e"/><path d="m56.133 39.867c-1.702-1.702-4.969-.714-8.133 1.417-3.164-2.13-6.432-3.118-8.133-1.417s-.713 4.968 1.417 8.133c-2.13 3.165-3.118 6.432-1.417 8.133.6.6 1.394.866 2.31.866 1.682 0 3.774-.902 5.823-2.281 2.049 1.379 4.141 2.281 5.823 2.281.916 0 1.71-.267 2.31-.866 1.701-1.701.713-4.968-1.417-8.133 2.13-3.165 3.117-6.432 1.417-8.133zm-2.332 1.129c.416 0 .73.098.918.285.613.613.248 2.571-1.266 5.017-.556-.684-1.15-1.351-1.775-1.976-.623-.623-1.288-1.216-1.97-1.77 1.691-1.045 3.155-1.556 4.093-1.556zm-1.532 7.004c-.573.737-1.24 1.498-2.006 2.264s-1.526 1.432-2.263 2.005c-.737-.573-1.497-1.24-2.263-2.005-.766-.766-1.433-1.527-2.006-2.264.573-.737 1.24-1.498 2.006-2.264s1.526-1.425 2.263-1.998c.737.573 1.497 1.232 2.263 1.998s1.433 1.527 2.006 2.264zm-10.988-6.719c.188-.188.502-.285.918-.285.938 0 2.402.511 4.093 1.556-.682.555-1.346 1.147-1.97 1.77-.625.625-1.219 1.292-1.775 1.976-1.513-2.446-1.879-4.403-1.266-5.017zm0 13.438c-.613-.613-.248-2.571 1.266-5.017.556.684 1.15 1.351 1.775 1.976.626.626 1.295 1.216 1.979 1.772-2.447 1.515-4.406 1.881-5.02 1.269zm13.438 0c-.613.616-2.573.248-5.022-1.269.685-.556 1.354-1.147 1.98-1.772.625-.625 1.219-1.292 1.775-1.976 1.514 2.446 1.88 4.403 1.267 5.017z"/><circle cx="48" cy="48" r="1"/></svg>