<svg height="496pt" viewBox="0 0 496 496" width="496pt" xmlns="http://www.w3.org/2000/svg"><path d="m371.433594 24.097656c-51.722656 2.214844-94.953125 43.71875-99.089844 95.316406-4.472656 55.777344 35.121094 103.097657 87.65625 111.234376v-30.648438c0-8.839844 7.160156-16 16-16s16 7.160156 16 16v30.648438c49.824219-7.71875 88-50.664063 88-102.648438 0-58.953125-49.046875-106.449219-108.566406-103.902344zm0 0" fill="#f0bc5e"/><path d="m472 272c-3.160156 0-6.160156.648438-8.929688 1.761719-2.757812-10.203125-12.007812-17.761719-23.070312-17.761719-3.160156 0-6.160156.648438-8.929688 1.761719-2.757812-10.203125-12.007812-17.761719-23.070312-17.761719-2.816406 0-5.488281.574219-8 1.472656v-41.472656c0-13.230469-10.769531-24-24-24s-24 10.769531-24 24v172.625c-1.503906-1.546875-2.574219-3.535156-2.992188-5.800781l-10.535156-57.929688c-2.199218-12.101562-12.71875-20.894531-25.023437-20.894531-14.035157 0-25.449219 11.414062-25.449219 25.441406v5.109375c0 1.394531.121094 2.792969.34375 4.183594l14.398438 86.355469c1.128906 6.726562 3.960937 13.101562 8.210937 18.40625l19.78125 24.726562c3.402344 4.257813 5.265625 9.578125 5.265625 15v28.777344h128v-28.777344c0-5.421875 1.863281-10.75 5.265625-15l17.964844-22.46875c5.648437-7.066406 8.769531-15.9375 8.769531-24.976562v-108.777344c0-13.230469-10.769531-24-24-24zm8 132.777344c0 5.421875-1.863281 10.75-5.265625 15l-17.964844 22.46875c-5.648437 7.066406-8.769531 15.9375-8.769531 24.976562v12.777344h-96v-12.777344c0-9.039062-3.121094-17.917968-8.769531-24.992187l-19.789063-24.726563c-2.546875-3.183594-4.25-7-4.921875-11.046875l-14.398437-86.335937c-.082032-.511719-.121094-1.042969-.121094-1.570313v-5.109375c0-5.210937 4.230469-9.441406 9.449219-9.441406 4.558593 0 8.472656 3.265625 9.285156 7.761719l10.53125 57.925781c2.351563 12.929688 13.589844 22.3125 26.734375 22.3125h8v-192c0-4.40625 3.585938-8 8-8s8 3.59375 8 8v128h16v-64c0-4.40625 3.585938-8 8-8s8 3.59375 8 8v64h16v-48c0-4.40625 3.585938-8 8-8s8 3.59375 8 8v48h16v-32c0-4.40625 3.585938-8 8-8s8 3.59375 8 8zm0 0"/><path d="m477.832031 45.488281-11.664062-10.976562-122.335938 130-18.175781-18.167969-11.3125 11.3125 29.824219 29.832031zm0 0"/><path d="m200 0h-144c-30.871094 0-56 25.121094-56 56v384c0 30.878906 25.128906 56 56 56h144c30.871094 0 56-25.121094 56-56v-384c0-30.878906-25.128906-56-56-56zm40 440c0 22.054688-17.945312 40-40 40h-144c-22.054688 0-40-17.945312-40-40v-384c0-22.054688 17.945312-40 40-40h144c22.054688 0 40 17.945312 40 40zm0 0"/><g fill="#f0bc5e"><path d="m128 192 19.777344 39.503906 44.222656 6.328125-32 30.753907 7.550781 43.414062-39.550781-20.496094-39.550781 20.496094 7.550781-43.414062-32-30.753907 44.222656-6.328125zm0 0"/><path d="m128 344 17.304688 34.230469 38.695312 5.496093-28 26.648438 6.609375 37.625-34.609375-17.769531-34.609375 17.769531 6.609375-37.625-28-26.648438 38.695312-5.496093zm0 0"/><path d="m128 48 17.304688 34.230469 38.695312 5.496093-28 26.648438 6.609375 37.625-34.609375-17.769531-34.609375 17.769531 6.609375-37.625-28-26.648438 38.695312-5.496093zm0 0"/></g></svg>