<?xml version="1.0" encoding="iso-8859-1"?>
<!-- Generator: Adobe Illustrator 19.0.0, SVG Export Plug-In . SVG Version: 6.00 Build 0)  -->
<svg version="1.1" id="Capa_1" xmlns="http://www.w3.org/2000/svg" xmlns:xlink="http://www.w3.org/1999/xlink" x="0px" y="0px"
	 viewBox="0 0 501.216 501.216" style="enable-background:new 0 0 501.216 501.216;" xml:space="preserve">
<path d="M170.608,194.608H0l13.36-46.752c4.216-14.768,16.728-25.944,31.88-28.472l21.368-3.56V110.2
	c-10.216-9.128-16-21.888-16-35.592v-24c0-26.472,21.528-48,48-48s48,21.528,48,48v24c0,13.704-5.784,26.464-16,35.592v5.624
	l21.36,3.56c15.16,2.52,27.672,13.704,31.888,28.472l5.88,20.576l-15.384,4.392l-5.88-20.576c-2.528-8.856-10.04-15.56-19.136-17.08
	l-34.728-5.776v-26.944l3.176-2.4c8.152-6.168,12.824-15.44,12.824-25.44v-24c0-17.648-14.352-32-32-32s-32,14.352-32,32v24
	c0,10,4.672,19.272,12.824,25.44l3.176,2.4v26.944l-34.736,5.776c-9.088,1.512-16.6,8.216-19.128,17.08l-7.528,26.36h149.392
	V194.608z"/>
<path d="M501.216,194.608H330.608v-16h149.4l-7.528-26.36c-2.528-8.856-10.04-15.56-19.136-17.08l-34.736-5.776v-26.944l3.176-2.4
	c8.152-6.168,12.824-15.44,12.824-25.44v-24c0-17.648-14.352-32-32-32s-32,14.352-32,32v24c0,10,4.672,19.272,12.824,25.44
	l3.176,2.4v26.944l-34.736,5.784c-9.088,1.512-16.6,8.216-19.128,17.08l-8.16,28.552l-15.384-4.392l8.16-28.552
	c4.216-14.768,16.728-25.944,31.88-28.472l21.368-3.568V110.2c-10.216-9.136-16-21.888-16-35.592v-24c0-26.472,21.528-48,48-48
	s48,21.528,48,48v24c0,13.704-5.784,26.464-16,35.592v5.624l21.36,3.56c15.16,2.52,27.672,13.704,31.888,28.472L501.216,194.608z"/>
<polygon points="300.952,52.952 312.264,64.264 341.92,34.608 312.264,4.952 300.952,16.264 311.296,26.608 178.608,26.608 
	178.608,42.608 311.296,42.608 "/>
<polygon points="208.264,72.264 196.952,60.952 167.296,90.608 196.952,120.264 208.264,108.952 197.92,98.608 330.608,98.608 
	330.608,82.608 197.92,82.608 "/>
<g>
	<path style="fill:#F0BC5E;" d="M318.776,171.456l-4-4c-18.608-18.6-43.344-28.848-69.664-28.848
		c-54.32,0-98.504,44.184-98.504,98.504v61.496h8c0-13.256,10.744-24,24-24v-8c20.488,0,40.136-8.136,54.624-22.624l9.376-9.376
		l0.824,1.096c14.592,19.456,37.488,30.904,61.8,30.904h17.376v8c13.256,0,24,10.744,24,24h8v-79.016
		C354.608,197.264,339.984,177.792,318.776,171.456z"/>
	<circle style="fill:#F0BC5E;" cx="458.608" cy="458.608" r="40"/>
</g>
<path d="M386.728,436.48c-6.088-20.272-22.8-35.216-43.624-39l-52.496-9.552v-4.144c19.632-11.4,34.008-30.848,38.488-53.84
	c14.544-3.008,25.512-15.912,25.512-31.336c0-14.872-10.24-27.288-24-30.864v-9.136H305.24c-21.68,0-42.4-10.352-55.4-27.688
	l-6.36-8.496l-15.896,15.904c-13.088,13.08-30.48,20.28-48.976,20.28h-8v9.136c-13.76,3.576-24,15.992-24,30.864
	c0,15.424,10.968,28.328,25.512,31.336c4.488,22.992,18.856,42.448,38.488,53.84v4.144l-52.496,9.544
	c-20.824,3.792-37.536,18.736-43.624,39.008l-18.632,62.128H405.36L386.728,436.48z M162.608,298.608c0-5.896,3.24-11,8-13.776
	v27.552C165.848,309.608,162.608,304.504,162.608,298.608z M216.608,403.104l21.824,16.368l-16.328,16.32l-10.592-31.768
	L216.608,403.104z M250.608,408.608l-23.32-17.488c7.384,2.256,15.208,3.488,23.32,3.488s15.936-1.232,23.32-3.488L250.608,408.608z
	 M284.608,403.104l5.088,0.928L279.104,435.8l-16.328-16.32L284.608,403.104z M338.608,298.608c0,5.896-3.24,11-8,13.776v-27.552
	C335.368,287.608,338.608,292.712,338.608,298.608z M186.608,314.608V274.24c19.752-1.832,38.08-10.4,52.288-24.6l3.112-3.112
	c16.04,17.704,39.144,28.08,63.232,28.08h9.368v40c0,35.288-28.712,64-64,64S186.608,349.896,186.608,314.608z M117.36,482.608
	l12.464-41.528c4.344-14.48,16.28-25.16,31.16-27.856l34.64-6.296l19.496,58.496l35.488-35.504l35.496,35.496L305.6,406.92
	l34.64,6.296c14.872,2.704,26.816,13.384,31.16,27.856l12.456,41.536H117.36z"/>
<path d="M458.608,482.608c-13.232,0-24-10.768-24-24s10.768-24,24-24s24,10.768,24,24S471.84,482.608,458.608,482.608z
	 M458.608,450.608c-4.408,0-8,3.584-8,8s3.592,8,8,8s8-3.584,8-8S463.016,450.608,458.608,450.608z"/>
<rect x="450.608" y="402.608" width="16" height="16"/>
<rect x="450.608" y="370.608" width="16" height="16"/>
<rect x="450.608" y="338.608" width="16" height="16"/>
<circle style="fill:#F0BC5E;" cx="42.608" cy="458.608" r="40"/>
<path d="M42.608,482.608c-13.232,0-24-10.768-24-24s10.768-24,24-24s24,10.768,24,24S55.84,482.608,42.608,482.608z M42.608,450.608
	c-4.408,0-8,3.584-8,8s3.592,8,8,8c4.408,0,8-3.584,8-8S47.016,450.608,42.608,450.608z"/>
<rect x="34.608" y="402.608" width="16" height="16"/>
<rect x="34.608" y="370.608" width="16" height="16"/>
<rect x="34.608" y="338.608" width="16" height="16"/>
<g>
</g>
<g>
</g>
<g>
</g>
<g>
</g>
<g>
</g>
<g>
</g>
<g>
</g>
<g>
</g>
<g>
</g>
<g>
</g>
<g>
</g>
<g>
</g>
<g>
</g>
<g>
</g>
<g>
</g>
</svg>
